<?xml version="1.0" standalone="no"?>
<!DOCTYPE svg PUBLIC "-//W3C//DTD SVG 20010904//EN"
 "http://www.w3.org/TR/2001/REC-SVG-20010904/DTD/svg10.dtd">
<svg version="1.0" xmlns="http://www.w3.org/2000/svg"
 width="512.000000pt" height="384.000000pt" viewBox="0 0 512.000000 384.000000"
 preserveAspectRatio="xMidYMid meet">
<metadata>
Created by potrace 1.16, written by Peter Selinger 2001-2019
</metadata>
<g transform="translate(0.000000,384.000000) scale(0.100000,-0.100000)"
fill="#000000" stroke="none">
<path d="M320 3426 c0 -24 -2 -26 -21 -16 -11 7 -22 10 -25 8 -5 -6 123 -78
139 -78 7 0 46 -21 87 -46 41 -26 90 -53 108 -60 29 -13 32 -13 32 3 1 17 2
17 15 -1 8 -10 12 -22 10 -26 -5 -8 43 -25 59 -21 4 1 20 -6 35 -16 26 -18 41
-26 110 -62 47 -25 323 -157 429 -205 111 -51 182 -91 209 -115 12 -12 24 -21
27 -21 9 0 77 -42 73 -46 -1 -2 -52 22 -112 53 -289 147 -342 174 -375 184
-19 6 -55 23 -80 38 -25 14 -56 31 -70 37 -14 6 -46 21 -73 33 -26 11 -53 21
-60 21 -6 0 -25 7 -41 15 -43 22 -49 2 -18 -57 40 -78 279 -311 399 -389 75
-49 111 -78 96 -79 -19 0 -87 33 -96 48 -4 6 -21 19 -37 27 -76 39 -440 395
-440 429 0 15 -84 96 -99 96 -5 0 -11 3 -13 8 -9 21 -71 52 -105 53 -27 0 -33
3 -19 8 17 7 16 8 -7 24 -15 9 -28 17 -30 17 -11 0 19 -97 35 -114 10 -11 18
-23 18 -27 0 -4 9 -11 21 -14 13 -4 18 -12 15 -21 -3 -9 -1 -12 4 -9 6 3 14
-4 19 -17 5 -13 48 -60 95 -105 47 -45 86 -86 86 -90 0 -5 15 -17 33 -28 17
-10 36 -24 40 -32 4 -7 13 -13 20 -13 7 0 6 4 -3 10 -11 7 -8 10 16 10 40 0
73 -33 54 -55 -10 -12 -9 -20 4 -40 9 -14 21 -25 26 -25 6 0 10 -6 10 -13 0
-7 10 -17 23 -22 12 -6 26 -20 32 -32 7 -16 18 -23 37 -23 16 0 28 4 28 8 0
14 -43 50 -64 54 -13 2 -20 12 -20 31 -2 33 13 48 20 20 3 -11 30 -32 60 -48
50 -26 68 -45 43 -45 -5 0 -3 -10 5 -22 9 -12 16 -33 16 -45 0 -12 6 -27 13
-32 6 -6 27 -22 45 -37 17 -14 30 -29 27 -33 -2 -5 18 -6 45 -3 33 3 50 1 50
-7 0 -6 -11 -11 -25 -11 -39 0 -32 -30 8 -32 17 0 37 -2 42 -3 6 -2 21 -3 35
-4 16 -1 34 -14 50 -36 14 -19 40 -40 58 -47 17 -7 32 -17 32 -24 0 -6 9 -22
19 -35 15 -19 22 -21 32 -12 16 16 68 -5 114 -46 19 -16 43 -32 54 -36 15 -4
21 -15 21 -36 0 -25 5 -30 31 -36 19 -3 34 -14 36 -24 4 -12 18 -21 42 -24 47
-8 65 -18 69 -40 5 -25 53 -64 80 -65 17 0 22 -6 22 -26 0 -24 2 -25 38 -20
58 9 104 -19 117 -71 5 -23 17 -50 26 -60 9 -10 14 -25 12 -33 -3 -9 1 -7 11
5 8 11 16 16 16 10 0 -5 5 -3 10 5 7 11 10 11 10 2 0 -9 13 -11 50 -6 40 5 50
4 50 -8 0 -8 9 -25 20 -38 17 -20 24 -22 44 -12 18 8 28 7 42 -2 16 -13 17
-15 2 -30 -21 -20 -38 -21 -38 -1 0 18 -5 18 -31 5 -10 -6 -19 -17 -19 -25 0
-15 30 -23 100 -27 36 -2 50 -9 73 -35 19 -21 38 -33 55 -33 14 0 34 -7 44
-17 10 -9 26 -21 37 -27 52 -31 101 -67 101 -75 0 -5 16 -28 35 -51 24 -29 33
-48 30 -63 -4 -15 1 -26 15 -35 26 -16 35 -10 60 36 10 20 30 50 44 66 37 42
34 9 -5 -53 -36 -60 -30 -80 31 -111 22 -11 40 -24 40 -28 0 -4 14 -16 31 -26
17 -10 28 -20 25 -23 -3 -3 -12 0 -21 7 -13 11 -15 9 -15 -14 0 -24 -4 -26
-40 -26 l-40 0 0 -80 0 -80 -40 0 -40 0 0 -120 0 -120 120 0 120 0 0 40 c0 33
3 40 20 40 13 0 20 -7 20 -20 0 -13 7 -20 20 -20 18 0 20 7 20 60 l0 60 40 0
40 0 0 40 0 40 80 0 80 0 0 -40 0 -40 40 0 40 0 0 -40 0 -40 68 0 c75 0 92 -9
92 -52 0 -26 3 -28 40 -28 40 0 40 0 40 -40 l0 -39 78 -3 77 -3 3 -38 3 -37
70 0 c55 0 69 -3 69 -15 0 -8 5 -15 10 -15 6 0 10 -11 10 -25 0 -22 4 -25 40
-25 l40 0 0 -40 0 -40 40 0 c22 0 40 -4 40 -10 0 -5 -18 -10 -40 -10 -22 0
-40 5 -40 10 0 6 -9 10 -20 10 -17 0 -20 -7 -20 -40 0 -33 3 -40 20 -40 13 0
20 7 20 20 0 17 7 20 40 20 33 0 40 -3 40 -20 0 -17 8 -19 78 -22 l77 -3 3
-38 c3 -36 4 -37 43 -37 39 0 39 0 39 -40 l0 -40 78 0 c69 0 81 3 100 23 12
13 22 31 22 40 0 10 8 17 20 17 13 0 20 7 20 20 0 17 7 20 40 20 l40 0 0 60 0
60 40 0 c38 0 40 2 40 30 0 17 6 40 13 51 10 17 10 23 0 26 -7 3 -13 16 -13
29 0 19 5 24 25 24 18 0 25 -5 25 -20 0 -11 7 -20 15 -20 12 0 15 13 15 60 0
53 -2 60 -20 60 -13 0 -20 7 -20 20 0 13 -7 20 -20 20 -13 0 -20 7 -20 20 0
18 -7 20 -80 20 l-80 0 0 40 0 40 -40 0 -40 0 0 40 0 40 -80 0 -80 0 0 40 0
40 -40 0 -40 0 0 40 0 40 -80 0 -80 0 0 40 0 40 -40 0 -40 0 0 40 0 40 -80 0
-80 0 0 40 0 40 -40 0 -40 0 0 40 0 40 -80 0 -80 0 0 40 0 40 -40 0 -40 0 0
80 0 80 60 0 c47 0 60 3 60 15 0 8 -9 15 -20 15 -15 0 -20 7 -20 25 0 23 4 25
40 25 l40 0 0 40 0 40 40 0 40 0 0 160 0 160 -160 0 -160 0 0 -40 0 -40 -40 0
-40 0 0 -40 0 -40 -80 0 c-66 0 -80 -3 -80 -16 0 -23 25 -44 54 -44 24 0 26
-3 26 -50 l0 -50 -40 0 -40 0 0 40 0 40 -80 0 -80 0 0 40 0 40 -77 0 c-42 0
-73 -3 -70 -7 7 -7 -22 -32 -38 -32 -5 0 -2 4 9 10 15 9 16 13 5 20 -8 5 -26
9 -41 9 -24 0 -28 4 -29 28 -1 15 -1 33 0 40 1 6 -9 12 -22 12 -12 0 -29 6
-36 13 -10 10 -11 9 -6 -4 4 -10 -3 -19 -22 -27 -25 -11 -26 -11 -10 2 22 17
4 26 -36 19 -24 -5 -27 -2 -27 21 0 32 -13 34 -28 4 -8 -18 -11 -19 -11 -6 -1
10 8 23 19 30 15 10 20 24 20 60 l0 48 -75 0 -75 0 -6 40 c-6 36 -10 40 -35
40 -15 0 -31 -5 -35 -12 -5 -7 -2 -8 7 -3 8 5 3 -4 -11 -19 -39 -43 -78 -60
-98 -44 -36 28 -52 58 -32 58 6 0 19 -14 29 -30 18 -30 18 -30 36 -10 10 11
26 22 37 26 10 3 18 11 17 17 -4 36 3 55 24 62 l22 8 -22 4 c-13 2 -23 8 -23
13 0 4 -11 10 -25 12 -14 3 -25 2 -25 -1 0 -4 -15 -5 -34 -3 -26 3 -43 -3 -69
-22 -19 -14 -46 -26 -60 -26 -15 0 -27 -5 -27 -12 0 -20 -27 14 -33 42 -4 14
-2 31 2 39 6 10 12 4 22 -23 7 -20 19 -36 27 -36 19 0 72 29 72 40 0 15 -21
23 -33 11 -6 -6 -21 -11 -34 -11 -18 0 -23 6 -23 26 0 17 -4 23 -12 18 -7 -4
-3 3 9 15 27 26 33 26 33 2 0 -17 18 -31 41 -31 5 0 9 29 9 65 l0 65 -126 0
-127 0 6 -50 c3 -27 4 -50 2 -50 -3 0 -12 11 -21 25 -15 23 -15 27 5 60 16 28
21 53 21 106 l0 69 -40 0 -40 0 0 -40 0 -40 -46 0 c-42 0 -45 -2 -39 -21 5
-15 4 -19 -4 -15 -15 9 -14 63 1 68 6 2 12 14 13 26 1 11 -2 19 -5 17 -4 -3
-5 16 -2 40 l5 45 -42 0 -41 0 0 40 0 40 -40 0 c-22 0 -40 5 -40 10 0 6 -9 10
-20 10 -11 0 -20 -4 -20 -10 0 -6 -27 -10 -60 -10 -60 0 -60 0 -60 29 0 16 6
31 12 33 9 3 8 9 -4 21 -18 18 -78 23 -78 7 0 -5 -20 -10 -45 -10 l-45 0 0 40
0 40 -80 0 -80 0 0 40 0 40 -80 0 -80 0 0 40 0 40 -80 0 -80 0 0 40 0 40 -120
0 -120 0 0 40 c0 33 3 40 20 40 11 0 20 5 20 10 0 6 -9 10 -20 10 -16 0 -20 7
-20 30 l0 30 -60 0 c-57 0 -60 -1 -60 -25 0 -18 7 -28 25 -35 37 -14 31 -20
-20 -20 l-45 0 0 40 0 40 -79 0 c-44 0 -81 -4 -83 -9 -1 -4 -12 -5 -23 0 -19
7 -19 8 3 8 19 1 22 6 22 41 l0 40 -64 0 c-35 0 -71 3 -80 6 -12 5 -16 0 -16
-20z m1230 -582 c0 -2 -9 0 -20 6 -11 6 -20 13 -20 16 0 2 9 0 20 -6 11 -6 20
-13 20 -16z m-51 -113 c23 -18 23 -18 2 -24 -12 -3 -19 -1 -15 5 3 5 -2 16
-12 23 -11 8 -14 14 -9 14 6 1 21 -8 34 -18z m-99 -20 c0 -5 3 -23 6 -40 6
-28 4 -31 -20 -31 -26 0 -35 13 -16 25 6 3 10 17 10 31 0 13 5 24 10 24 6 0
10 -4 10 -9z m475 -9 c-3 -3 -11 0 -18 7 -9 10 -8 11 6 5 10 -3 15 -9 12 -12z
m-355 -6 c0 -3 -4 -8 -10 -11 -5 -3 -10 -1 -10 4 0 6 5 11 10 11 6 0 10 -2 10
-4z m418 -14 c6 -1 12 -6 12 -12 0 -10 -59 -3 -72 9 -7 6 23 7 60 3z m-325
-87 c-7 -21 -13 -19 -13 6 0 11 4 18 10 14 5 -3 7 -12 3 -20z m-183 -24 c14
-12 20 -21 15 -21 -6 0 -26 14 -45 30 -37 33 -13 25 30 -9z m160 -25 c0 -3 -4
-8 -10 -11 -5 -3 -10 -1 -10 4 0 6 5 11 10 11 6 0 10 -2 10 -4z m-43 -31 c-11
-7 -25 -11 -33 -8 -22 8 -6 23 24 23 25 -1 26 -2 9 -15z m406 -292 c87 -58
170 -116 184 -129 14 -13 30 -24 35 -24 5 0 14 -5 21 -10 7 -6 93 -63 192
-128 99 -65 187 -126 196 -134 9 -9 40 -31 70 -49 55 -34 79 -53 79 -63 0 -7
-109 62 -246 157 -55 37 -162 109 -239 160 -77 51 -168 113 -201 138 -34 24
-114 80 -178 123 -64 44 -116 81 -116 83 0 8 49 -22 203 -124z m541 47 c-5 -5
-10 3 -11 18 -1 22 0 24 9 8 6 -10 6 -22 2 -26z m145 -193 c13 -13 87 23 84
41 -2 6 4 9 11 6 11 -4 6 -14 -17 -38 -51 -52 -72 -60 -107 -39 -35 20 -37 33
-13 75 l18 29 6 -31 c4 -18 12 -37 18 -43z m146 -127 c-10 -17 -25 -1 -25 28
l0 26 16 -22 c8 -12 12 -27 9 -32z m139 -25 c-15 -23 -15 -27 0 -50 23 -36 22
-59 -4 -45 -25 13 -28 81 -4 104 23 24 27 19 8 -9z m-634 -15 c8 -5 11 -12 7
-16 -4 -4 -15 0 -24 9 -18 18 -8 23 17 7z m1470 -20 c0 -23 -4 -30 -20 -30
-16 0 -20 7 -20 30 0 23 4 30 20 30 16 0 20 -7 20 -30z m-760 -29 c0 -5 -7
-12 -16 -15 -24 -9 -28 -7 -14 9 14 17 30 20 30 6z m114 -96 c3 -8 1 -15 -4
-15 -6 0 -10 7 -10 15 0 8 2 15 4 15 2 0 6 -7 10 -15z m1 -45 c3 -5 1 -10 -4
-10 -6 0 -11 5 -11 10 0 6 2 10 4 10 3 0 8 -4 11 -10z m365 -70 c8 -5 10 -10
4 -10 -7 0 -22 9 -35 21 -19 16 -20 18 -4 10 11 -6 27 -15 35 -21z"/>
<path d="M200 3340 c0 -11 5 -20 10 -20 6 0 10 -9 10 -20 0 -11 5 -20 10 -20
6 0 10 18 10 40 0 33 -3 40 -20 40 -13 0 -20 -7 -20 -20z"/>
<path d="M380 3316 c0 -2 7 -9 15 -16 12 -10 15 -10 15 4 0 9 -7 16 -15 16 -8
0 -15 -2 -15 -4z"/>
<path d="M2022 2703 c2 -11 14 -19 31 -21 22 -3 27 1 27 17 0 17 -6 21 -31 21
-24 0 -30 -4 -27 -17z"/>
<path d="M2240 2540 c0 -18 7 -20 80 -20 73 0 80 2 80 20 0 18 -7 20 -80 20
-73 0 -80 -2 -80 -20z"/>
<path d="M2080 1670 c0 -5 9 -10 20 -10 11 0 20 5 20 10 0 6 -9 10 -20 10 -11
0 -20 -4 -20 -10z"/>
<path d="M2805 1290 c-3 -5 -1 -10 4 -10 6 0 11 5 11 10 0 6 -2 10 -4 10 -3 0
-8 -4 -11 -10z"/>
<path d="M2960 1210 c0 -6 7 -10 15 -10 8 0 15 2 15 4 0 2 -7 6 -15 10 -8 3
-15 1 -15 -4z"/>
<path d="M2890 1190 c0 -6 7 -10 15 -10 8 0 15 2 15 4 0 2 -7 6 -15 10 -8 3
-15 1 -15 -4z"/>
<path d="M4100 450 c0 -5 5 -10 10 -10 6 0 10 5 10 10 0 6 -4 10 -10 10 -5 0
-10 -4 -10 -10z"/>
</g>
</svg>
